{
  "accessors": [
    {
      "bufferView": 2,
      "componentType": 5126,
      "count": 118,
      "max": [
        0.38549700379371643,
        14.916290283203125,
        5.7858991622924805
      ],
      "min": [
        -0.38549700379371643,
        9.8870744705200195,
        3.6627519130706787
      ],
      "type": "VEC3"
    },
    {
      "bufferView": 2,
      "byteOffset": 1416,
      "componentType": 5126,
      "count": 118,
      "max": [
        0.99647200107574463,
        0.94781988859176636,
        0.91183263063430786
      ],
      "min": [
        -0.99647200107574463,
        -0.84916126728057861,
        -0.78160375356674194
      ],
      "type": "VEC3"
    },
    {
      "bufferView": 1,
      "componentType": 5126,
      "count": 118,
      "max": [
        4.8418473417052531e+30,
        4.8354246210570955e+30
      ],
      "min": [
        -62681886589190144,
        0
      ],
      "type": "VEC2"
    },
    {
      "bufferView": 0,
      "componentType": 5125,
      "count": 120,
      "max": [
        117
      ],
      "min": [
        0
      ],
      "type": "SCALAR"
    },
    {
      "bufferView": 2,
      "byteOffset": 2832,
      "componentType": 5126,
      "count": 189,
      "max": [
        1.0465409755706787,
        10.048922538757324,
        4.3157157897949219
      ],
      "min": [
        -0.2740359902381897,
        -0.061459001153707504,
        -1.1467920541763306
      ],
      "type": "VEC3"
    },
    {
      "bufferView": 2,
      "byteOffset": 5100,
      "componentType": 5126,
      "count": 189,
      "max": [
        0.99967402219772339,
        1,
        0.9368470311164856
      ],
      "min": [
        -1,
        -1,
        -0.98279517889022827
      ],
      "type": "VEC3"
    },
    {
      "bufferView": 1,
      "byteOffset": 944,
      "componentType": 5126,
      "count": 189,
      "max": [
        7.2064696748654245e+31,
        4.7428876964261486e+30
      ],
      "min": [
        -62681886589190144,
        0
      ],
      "type": "VEC2"
    },
    {
      "bufferView": 0,
      "byteOffset": 480,
      "componentType": 5125,
      "count": 192,
      "max": [
        188
      ],
      "min": [
        0
      ],
      "type": "SCALAR"
    },
    {
      "bufferView": 2,
      "byteOffset": 7368,
      "componentType": 5126,
      "count": 35,
      "max": [
        -0.2363789975643158,
        0.59793800115585327,
        1.6302859783172607
      ],
      "min": [
        -0.2740359902381897,
        -0.0054790000431239605,
        -0.88207399845123291
      ],
      "type": "VEC3"
    },
    {
      "bufferView": 2,
      "byteOffset": 7788,
      "componentType": 5126,
      "count": 35,
      "max": [
        0,
        1,
        1
      ],
      "min": [
        -1,
        -0,
        -0.93815344572067261
      ],
      "type": "VEC3"
    },
    {
      "bufferView": 1,
      "byteOffset": 2456,
      "componentType": 5126,
      "count": 35,
      "max": [
        1.3821413155119231e+31,
        1.8886460541891019e+31
      ],
      "min": [
        -0.2740359902381897,
        -0.2740359902381897
      ],
      "type": "VEC2"
    },
    {
      "bufferView": 0,
      "byteOffset": 1248,
      "componentType": 5125,
      "count": 36,
      "max": [
        34
      ],
      "min": [
        0
      ],
      "type": "SCALAR"
    }
  ],
  "asset": {
    "extras": {
      "author": "IronEqual (https://sketchfab.com/ie-niels)",
      "license": "CC-BY-4.0 (http://creativecommons.org/licenses/by/4.0/)",
      "source": "https://sketchfab.com/3d-models/golf-club-from-poly-by-google-864af4fc9b814e1a92bebe034b8e1a50",
      "title": "Golf club from Poly by Google"
    },
    "generator": "Sketchfab-9.97.0",
    "version": "2.0"
  },
  "bufferViews": [
    {
      "buffer": 0,
      "byteLength": 1392,
      "byteOffset": 0,
      "name": "floatBufferViews",
      "target": 34963
    },
    {
      "buffer": 0,
      "byteLength": 2736,
      "byteOffset": 1392,
      "byteStride": 8,
      "name": "floatBufferViews",
      "target": 34962
    },
    {
      "buffer": 0,
      "byteLength": 8208,
      "byteOffset": 4128,
      "byteStride": 12,
      "name": "floatBufferViews",
      "target": 34962
    }
  ],
  "buffers": [
    {
      "byteLength": 12336,
      "uri": "scene.bin"
    }
  ],
  "materials": [
    {
      "doubleSided": true,
      "emissiveFactor": [
        0,
        0,
        0
      ],
      "name": "1A1A1A",
      "pbrMetallicRoughness": {
        "baseColorFactor": [
          0.101961,
          0.101961,
          0.101961,
          1
        ],
        "metallicFactor": 0,
        "roughnessFactor": 0.74480199999999996
      }
    },
    {
      "doubleSided": true,
      "emissiveFactor": [
        0,
        0,
        0
      ],
      "name": "78909C",
      "pbrMetallicRoughness": {
        "baseColorFactor": [
          0.47058800000000001,
          0.56470600000000004,
          0.611765,
          1
        ],
        "metallicFactor": 0,
        "roughnessFactor": 0.74480199999999996
      }
    },
    {
      "doubleSided": true,
      "emissiveFactor": [
        0,
        0,
        0
      ],
      "name": "455A64",
      "pbrMetallicRoughness": {
        "baseColorFactor": [
          0.270588,
          0.352941,
          0.39215699999999998,
          1
        ],
        "metallicFactor": 0,
        "roughnessFactor": 0.74480199999999996
      }
    }
  ],
  "meshes": [
    {
      "primitives": [
        {
          "attributes": {
            "NORMAL": 1,
            "POSITION": 0,
            "TEXCOORD_0": 2
          },
          "indices": 3,
          "material": 0,
          "mode": 4
        }
      ]
    },
    {
      "primitives": [
        {
          "attributes": {
            "NORMAL": 5,
            "POSITION": 4,
            "TEXCOORD_0": 6
          },
          "indices": 7,
          "material": 1,
          "mode": 4
        }
      ]
    },
    {
      "primitives": [
        {
          "attributes": {
            "NORMAL": 9,
            "POSITION": 8,
            "TEXCOORD_0": 10
          },
          "indices": 11,
          "material": 2,
          "mode": 4
        }
      ]
    }
  ],
  "nodes": [
    {
      "children": [
        1
      ],
      "name": "RootNode (gltf orientation matrix)",
      "rotation": [
        -0.70710678118654746,
        -0,
        -0,
        0.70710678118654757
      ]
    },
    {
      "children": [
        2
      ],
      "name": "RootNode (model correction matrix)"
    },
    {
      "children": [
        3
      ],
      "name": "root"
    },
    {
      "children": [
        4
      ],
      "matrix": [
        1,
        0,
        0,
        0,
        0,
        2.2204460492503131e-16,
        1,
        0,
        0,
        -1,
        2.2204460492503131e-16,
        0,
        0,
        0,
        0,
        1
      ],
      "name": "GLTF_SceneRootNode"
    },
    {
      "children": [
        5,
        6,
        7
      ],
      "name": "node-0_0"
    },
    {
      "mesh": 0,
      "name": ""
    },
    {
      "mesh": 1,
      "name": ""
    },
    {
      "mesh": 2,
      "name": ""
    }
  ],
  "scene": 0,
  "scenes": [
    {
      "name": "OSG_Scene",
      "nodes": [
        0
      ]
    }
  ]
}

